# xmcd
#
# Track frame offsets:
#	150
#	12762
#	29287
#	41522
#	57577
#	72115
#	84127
#	100472
#	116577
#	131887
#	148152
#	165920
#	182272
#	195842
#	209815
#
# Disc length: 3020 seconds
#
# Revision: 1
# Processed by: cddbd v1.5.2PL0 Copyright (c) Steve Scherf et al.
# Submitted via: audiograbber 1.83.01
#
DISCID=c90bca0f
DTITLE=Various Artist - SC8564
DYEAR=1900
DGENRE=Country
TTITLE0=Charley Pride - She's Just An Old Love Turned Memory
TTITLE1=Highway 101 - (Do You Love Me) Just Say Yes
TTITLE2=Mel Tillis - I Believe In You
TTITLE3=The Statler Brothers - My Only Love
TTITLE4=Donna Fargo - It Do Feel Good
TTITLE5=Connie Smith - Then And Only Then
TTITLE6=Willie Nelson - Bloody Mary Morning
TTITLE7=Johnny Duncan - She Can Put Her Shoes Under My Bed...
TTITLE8=The Desert Rose Band - He's Back And I'm Blue
TTITLE9=Joe Stampley - All These Things
TTITLE10=Roseanne Cash - Never Be You
TTITLE11=Sawyer Brown - Used To Blue
TTITLE12=Ronnie McDowell - In A New York Minute
TTITLE13=Billy "Crash" Craddock - I Cheated On A Good Woman's...
TTITLE14=Asleep At The Wheel - The Letter That Johnny Walker...
EXTD=
EXTT0=
EXTT1=
EXTT2=
EXTT3=
EXTT4=
EXTT5=
EXTT6=
EXTT7=
EXTT8=
EXTT9=
EXTT10=
EXTT11=
EXTT12=
EXTT13=
EXTT14=
PLAYORDER=
